<svg version="1.1" id="Layer_1" xmlns="http://www.w3.org/2000/svg" xmlns:xlink="http://www.w3.org/1999/xlink" x="0px" y="0px"
	 width="100%" viewBox="0 0 496 496" enable-background="new 0 0 496 496" xml:space="preserve">
<path fill="#000000" opacity="1.000000" stroke="none" 
	d="
M497.000000,111.000000 
	C497.000000,213.354233 497.000000,315.708466 496.727936,418.527557 
	C494.599823,419.063599 493.341064,420.290222 492.357269,421.564453 
	C488.789368,426.185394 484.089264,429.793884 480.502106,434.272614 
	C474.951691,441.202484 468.290894,445.188782 459.500671,446.104156 
	C454.084320,446.668213 449.851440,449.651337 446.869232,454.157532 
	C442.993744,460.013519 444.169037,462.473022 451.042908,463.267151 
	C453.198883,463.516174 455.059937,464.181458 455.360260,466.594330 
	C455.628632,468.750519 454.119202,470.050079 452.343231,470.675934 
	C450.492279,471.328278 448.496155,471.636688 446.537201,471.898865 
	C443.405914,472.317963 440.150513,472.381256 437.460785,474.247711 
	C432.112427,477.958923 426.098755,479.564636 419.760010,480.430878 
	C411.032227,481.623596 402.360321,483.039612 394.436066,487.303650 
	C390.483154,489.430695 387.659241,491.996918 389.000000,497.000000 
	C300.312439,497.000000 211.624878,497.000000 122.568115,496.796112 
	C121.556488,491.660522 118.028503,489.205322 113.868683,487.960480 
	C101.913460,484.382660 90.800339,478.552277 78.688881,475.345978 
	C68.384865,472.618195 61.601410,466.037415 59.910748,455.031525 
	C59.158978,450.137604 56.018921,447.087891 51.848434,444.906708 
	C49.172272,443.507050 46.200172,442.983551 43.351418,442.084076 
	C37.104206,440.111511 31.016813,437.094574 30.370878,429.865875 
	C29.602587,421.267883 27.201723,413.268463 24.403261,405.246948 
	C22.755735,400.524475 21.907557,395.650940 22.256338,390.542358 
	C23.204737,376.651276 16.173147,366.251038 3.197013,362.126190 
	C2.615974,361.941498 1.739084,362.687500 1.000000,363.000000 
	C1.000000,299.312439 1.000000,235.624878 1.198827,171.654816 
	C2.272066,172.738937 3.332546,173.003525 4.756090,172.106171 
	C7.013589,170.683121 9.610799,170.751114 12.037706,171.142365 
	C17.022745,171.945984 20.506029,169.725128 21.854492,165.400803 
	C25.870996,152.520447 34.439243,142.547409 41.954174,131.808182 
	C45.952023,126.095055 51.228886,124.781174 57.331898,124.543510 
	C62.000168,124.361717 66.613945,124.065460 71.094902,122.585632 
	C92.619644,115.477112 109.523056,101.393250 124.663467,85.392815 
	C135.271088,74.182632 145.116791,62.494812 157.819824,53.326035 
	C165.805176,47.562382 173.017029,40.881504 182.992432,38.912766 
	C190.346634,37.461346 196.782333,34.162373 202.938156,30.117348 
	C208.092697,26.730282 213.462570,23.780525 219.138840,21.315922 
	C222.721985,19.760138 226.084457,17.647066 229.197372,14.859024 
	C227.635040,12.600022 226.561096,10.584641 226.574966,7.863227 
	C226.591263,4.668789 229.891342,4.624324 231.073624,2.494213 
	C229.475555,1.908040 228.237778,1.454021 227.000000,1.000001 
	C265.020905,1.000000 303.041779,1.000000 341.267883,1.124930 
	C340.567871,1.866896 339.104370,1.648606 338.692230,3.184374 
	C339.753265,4.957057 341.208618,6.711761 341.198273,8.952989 
	C341.163574,16.484344 346.751770,18.928364 352.361267,21.030647 
	C357.646973,23.011581 363.207733,24.283436 368.125732,27.185371 
	C372.494049,29.762951 377.226471,31.236315 382.187531,32.053871 
	C402.085083,35.332874 416.504486,47.975082 430.727722,60.763313 
	C436.877045,66.292198 439.588501,74.358009 444.020416,81.168808 
	C446.585052,85.110039 449.198425,89.386940 454.095551,90.291496 
	C461.996857,91.750977 467.185059,96.299789 471.083862,102.921371 
	C472.599976,105.496323 474.286407,107.986351 476.069519,110.385551 
	C479.849030,115.470894 483.898041,116.386307 489.486145,113.248619 
	C491.877594,111.905830 494.246185,110.923851 497.000000,111.000000 
M150.577301,245.325912 
	C140.622284,247.383362 140.457428,247.590668 140.449203,257.707306 
	C140.445007,262.871582 140.368317,268.036377 140.419373,273.199982 
	C140.472565,278.581573 141.580002,279.281708 146.752899,277.903473 
	C155.046280,275.693878 162.889404,271.887756 171.355637,270.734222 
	C172.956238,272.048492 173.138916,273.744507 173.588348,275.330994 
	C175.819427,283.206573 178.670959,290.974060 182.768005,297.944305 
	C194.415680,317.760162 210.727402,332.643982 232.526779,340.648865 
	C255.512848,349.089478 278.574066,349.157227 301.594543,340.166168 
	C317.314301,334.026550 330.835266,325.162018 340.595215,311.110657 
	C346.275208,302.933197 345.122498,293.657410 337.731628,288.750854 
	C330.361542,283.858093 321.689850,285.979858 316.268280,294.167999 
	C313.842957,297.830963 311.007812,301.109955 307.462952,303.613342 
	C280.420166,322.710968 240.482162,321.767609 217.272949,294.658081 
	C211.491333,287.904877 207.489670,280.018463 204.744476,271.560333 
	C203.914627,269.003540 203.712402,266.529938 207.768860,266.508362 
	C220.999390,266.437988 233.833984,268.674103 246.401215,272.710724 
	C261.311462,277.499939 276.524261,280.697845 292.170807,282.039459 
	C302.154694,282.895569 312.141998,282.827301 322.047485,282.139587 
	C328.505920,281.691162 335.110107,282.658203 341.411041,281.018311 
	C353.133179,277.967560 361.304443,265.810760 361.280396,251.186798 
	C361.249420,232.334152 356.696899,214.698425 346.074738,198.843582 
	C331.730072,177.432510 312.170807,163.654541 287.008026,157.754868 
	C275.218689,154.990707 263.533508,154.758377 251.544022,156.610901 
	C230.144897,159.917328 212.125336,169.501587 197.279633,184.924805 
	C183.668976,199.064957 175.246292,216.056686 172.071930,235.492569 
	C171.486374,239.077881 169.653549,240.585709 166.240860,241.084488 
	C161.123825,241.832397 156.173477,243.319504 150.577301,245.325912 
z"/>
<path fill="#000000" opacity="1.000000" stroke="none" 
	d="
M305.581055,198.321503 
	C318.049927,208.321213 326.532257,220.509537 329.860016,235.936234 
	C330.660950,239.649139 330.935883,243.483063 331.326904,247.274323 
	C331.618256,250.099411 330.230011,251.758041 327.370270,251.893524 
	C310.953491,252.671387 294.636902,253.475830 278.250336,250.071045 
	C267.950195,247.930893 258.001862,244.848557 247.950882,241.994858 
	C234.910370,238.292343 221.635956,236.471786 208.095871,236.448700 
	C206.462051,236.445908 204.761475,236.773499 202.863419,235.428741 
	C203.633163,229.291794 205.985657,223.554749 209.103210,218.054352 
	C228.554779,183.735352 272.618958,176.232025 302.330414,196.250717 
	C303.296234,196.901443 304.306519,197.486160 305.581055,198.321503 
z"/>
</svg>